<svg xmlns="http://www.w3.org/2000/svg" xmlns:xlink="http://www.w3.org/1999/xlink" width="325" zoomAndPan="magnify" viewBox="0 0 243.75 30.000001" height="40" preserveAspectRatio="xMidYMid meet" version="1.0"><defs><g/><clipPath id="id1"><path d="M 19 10 L 39 10 L 39 29.03125 L 19 29.03125 Z M 19 10 " clip-rule="nonzero"/></clipPath><clipPath id="id2"><path d="M 42 4 L 61 4 L 61 29.03125 L 42 29.03125 Z M 42 4 " clip-rule="nonzero"/></clipPath><clipPath id="id3"><path d="M 64 10 L 83 10 L 83 29.03125 L 64 29.03125 Z M 64 10 " clip-rule="nonzero"/></clipPath><clipPath id="id4"><path d="M 129 10 L 143 10 L 143 29.03125 L 129 29.03125 Z M 129 10 " clip-rule="nonzero"/></clipPath><clipPath id="id5"><path d="M 193 6 L 207 6 L 207 29.03125 L 193 29.03125 Z M 193 6 " clip-rule="nonzero"/></clipPath><clipPath id="id6"><path d="M 210 6 L 222 6 L 222 29.03125 L 210 29.03125 Z M 210 6 " clip-rule="nonzero"/></clipPath><clipPath id="id7"><path d="M 223 6 L 239.699219 6 L 239.699219 29.03125 L 223 29.03125 Z M 223 6 " clip-rule="nonzero"/></clipPath><clipPath id="id8"><path d="M 221 4 L 239.699219 4 L 239.699219 28 L 221 28 Z M 221 4 " clip-rule="nonzero"/></clipPath><clipPath id="id9"><path d="M 3.867188 7.539062 L 15.433594 7.539062 L 15.433594 27.15625 L 3.867188 27.15625 Z M 3.867188 7.539062 " clip-rule="nonzero"/></clipPath><clipPath id="id10"><path d="M 175.875 7.539062 L 187.328125 7.539062 L 187.328125 27.15625 L 175.875 27.15625 Z M 175.875 7.539062 " clip-rule="nonzero"/></clipPath></defs><g clip-path="url(#id1)"><g fill="#d9d9d9" fill-opacity="0.4"><g transform="translate(18.492873, 28.976441)"><g><path d="M 1.40625 -9.046875 C 1.40625 -10.878906 1.773438 -12.488281 2.515625 -13.875 C 3.265625 -15.269531 4.289062 -16.347656 5.59375 -17.109375 C 6.894531 -17.878906 8.34375 -18.265625 9.9375 -18.265625 C 11.507812 -18.265625 12.875 -17.925781 14.03125 -17.25 C 15.1875 -16.570312 16.050781 -15.71875 16.625 -14.6875 L 16.625 -17.96875 L 19.640625 -17.96875 L 19.640625 0 L 16.625 0 L 16.625 -3.34375 C 16.03125 -2.289062 15.148438 -1.421875 13.984375 -0.734375 C 12.816406 -0.046875 11.457031 0.296875 9.90625 0.296875 C 8.300781 0.296875 6.851562 -0.09375 5.5625 -0.875 C 4.28125 -1.664062 3.265625 -2.769531 2.515625 -4.1875 C 1.773438 -5.613281 1.40625 -7.234375 1.40625 -9.046875 Z M 16.625 -9.015625 C 16.625 -10.367188 16.347656 -11.546875 15.796875 -12.546875 C 15.253906 -13.554688 14.515625 -14.328125 13.578125 -14.859375 C 12.648438 -15.398438 11.628906 -15.671875 10.515625 -15.671875 C 9.398438 -15.671875 8.382812 -15.40625 7.46875 -14.875 C 6.550781 -14.351562 5.816406 -13.585938 5.265625 -12.578125 C 4.722656 -11.578125 4.453125 -10.398438 4.453125 -9.046875 C 4.453125 -7.671875 4.722656 -6.472656 5.265625 -5.453125 C 5.816406 -4.441406 6.550781 -3.664062 7.46875 -3.125 C 8.382812 -2.59375 9.398438 -2.328125 10.515625 -2.328125 C 11.628906 -2.328125 12.648438 -2.59375 13.578125 -3.125 C 14.515625 -3.664062 15.253906 -4.441406 15.796875 -5.453125 C 16.347656 -6.472656 16.625 -7.660156 16.625 -9.015625 Z M 16.625 -9.015625 "/></g></g></g></g><g clip-path="url(#id2)"><g fill="#d9d9d9" fill-opacity="0.4"><g transform="translate(40.649494, 28.976441)"><g><path d="M 1.40625 -9.046875 C 1.40625 -10.878906 1.773438 -12.488281 2.515625 -13.875 C 3.265625 -15.269531 4.289062 -16.347656 5.59375 -17.109375 C 6.894531 -17.878906 8.351562 -18.265625 9.96875 -18.265625 C 11.363281 -18.265625 12.660156 -17.941406 13.859375 -17.296875 C 15.066406 -16.648438 15.988281 -15.800781 16.625 -14.75 L 16.625 -24.265625 L 19.640625 -24.265625 L 19.640625 0 L 16.625 0 L 16.625 -3.375 C 16.03125 -2.300781 15.15625 -1.421875 14 -0.734375 C 12.84375 -0.046875 11.488281 0.296875 9.9375 0.296875 C 8.34375 0.296875 6.894531 -0.09375 5.59375 -0.875 C 4.289062 -1.664062 3.265625 -2.769531 2.515625 -4.1875 C 1.773438 -5.613281 1.40625 -7.234375 1.40625 -9.046875 Z M 16.625 -9.015625 C 16.625 -10.367188 16.347656 -11.546875 15.796875 -12.546875 C 15.253906 -13.554688 14.515625 -14.328125 13.578125 -14.859375 C 12.648438 -15.398438 11.628906 -15.671875 10.515625 -15.671875 C 9.398438 -15.671875 8.382812 -15.40625 7.46875 -14.875 C 6.550781 -14.351562 5.816406 -13.585938 5.265625 -12.578125 C 4.722656 -11.578125 4.453125 -10.398438 4.453125 -9.046875 C 4.453125 -7.671875 4.722656 -6.472656 5.265625 -5.453125 C 5.816406 -4.441406 6.550781 -3.664062 7.46875 -3.125 C 8.382812 -2.59375 9.398438 -2.328125 10.515625 -2.328125 C 11.628906 -2.328125 12.648438 -2.59375 13.578125 -3.125 C 14.515625 -3.664062 15.253906 -4.441406 15.796875 -5.453125 C 16.347656 -6.472656 16.625 -7.660156 16.625 -9.015625 Z M 16.625 -9.015625 "/></g></g></g></g><g clip-path="url(#id3)"><g fill="#d9d9d9" fill-opacity="0.4"><g transform="translate(62.806115, 28.976441)"><g><path d="M 1.40625 -9.046875 C 1.40625 -10.878906 1.773438 -12.488281 2.515625 -13.875 C 3.265625 -15.269531 4.289062 -16.347656 5.59375 -17.109375 C 6.894531 -17.878906 8.34375 -18.265625 9.9375 -18.265625 C 11.507812 -18.265625 12.875 -17.925781 14.03125 -17.25 C 15.1875 -16.570312 16.050781 -15.71875 16.625 -14.6875 L 16.625 -17.96875 L 19.640625 -17.96875 L 19.640625 0 L 16.625 0 L 16.625 -3.34375 C 16.03125 -2.289062 15.148438 -1.421875 13.984375 -0.734375 C 12.816406 -0.046875 11.457031 0.296875 9.90625 0.296875 C 8.300781 0.296875 6.851562 -0.09375 5.5625 -0.875 C 4.28125 -1.664062 3.265625 -2.769531 2.515625 -4.1875 C 1.773438 -5.613281 1.40625 -7.234375 1.40625 -9.046875 Z M 16.625 -9.015625 C 16.625 -10.367188 16.347656 -11.546875 15.796875 -12.546875 C 15.253906 -13.554688 14.515625 -14.328125 13.578125 -14.859375 C 12.648438 -15.398438 11.628906 -15.671875 10.515625 -15.671875 C 9.398438 -15.671875 8.382812 -15.40625 7.46875 -14.875 C 6.550781 -14.351562 5.816406 -13.585938 5.265625 -12.578125 C 4.722656 -11.578125 4.453125 -10.398438 4.453125 -9.046875 C 4.453125 -7.671875 4.722656 -6.472656 5.265625 -5.453125 C 5.816406 -4.441406 6.550781 -3.664062 7.46875 -3.125 C 8.382812 -2.59375 9.398438 -2.328125 10.515625 -2.328125 C 11.628906 -2.328125 12.648438 -2.59375 13.578125 -3.125 C 14.515625 -3.664062 15.253906 -4.441406 15.796875 -5.453125 C 16.347656 -6.472656 16.625 -7.660156 16.625 -9.015625 Z M 16.625 -9.015625 "/></g></g></g></g><g fill="#d9d9d9" fill-opacity="0.4"><g transform="translate(84.962737, 28.976441)"><g><path d="M 24.125 -18.296875 C 25.519531 -18.296875 26.765625 -18.003906 27.859375 -17.421875 C 28.953125 -16.835938 29.816406 -15.96875 30.453125 -14.8125 C 31.085938 -13.65625 31.40625 -12.25 31.40625 -10.59375 L 31.40625 0 L 28.453125 0 L 28.453125 -10.15625 C 28.453125 -11.945312 28.007812 -13.316406 27.125 -14.265625 C 26.238281 -15.222656 25.039062 -15.703125 23.53125 -15.703125 C 21.976562 -15.703125 20.742188 -15.203125 19.828125 -14.203125 C 18.910156 -13.210938 18.453125 -11.78125 18.453125 -9.90625 L 18.453125 0 L 15.5 0 L 15.5 -10.15625 C 15.5 -11.945312 15.054688 -13.316406 14.171875 -14.265625 C 13.285156 -15.222656 12.09375 -15.703125 10.59375 -15.703125 C 9.039062 -15.703125 7.800781 -15.203125 6.875 -14.203125 C 5.957031 -13.210938 5.5 -11.78125 5.5 -9.90625 L 5.5 0 L 2.53125 0 L 2.53125 -17.96875 L 5.5 -17.96875 L 5.5 -15.375 C 6.09375 -16.3125 6.882812 -17.03125 7.875 -17.53125 C 8.875 -18.039062 9.972656 -18.296875 11.171875 -18.296875 C 12.679688 -18.296875 14.015625 -17.957031 15.171875 -17.28125 C 16.335938 -16.601562 17.203125 -15.609375 17.765625 -14.296875 C 18.265625 -15.554688 19.09375 -16.535156 20.25 -17.234375 C 21.414062 -17.941406 22.707031 -18.296875 24.125 -18.296875 Z M 24.125 -18.296875 "/></g></g></g><g fill="#d9d9d9" fill-opacity="0.4"><g transform="translate(118.722091, 28.976441)"><g/></g></g><g clip-path="url(#id4)"><g fill="#d9d9d9" fill-opacity="0.4"><g transform="translate(127.473301, 28.976441)"><g><path d="M 8.890625 0.296875 C 7.503906 0.296875 6.265625 0.0625 5.171875 -0.40625 C 4.085938 -0.875 3.226562 -1.53125 2.59375 -2.375 C 1.957031 -3.21875 1.609375 -4.1875 1.546875 -5.28125 L 4.625 -5.28125 C 4.707031 -4.382812 5.125 -3.648438 5.875 -3.078125 C 6.632812 -2.515625 7.625 -2.234375 8.84375 -2.234375 C 9.988281 -2.234375 10.882812 -2.484375 11.53125 -2.984375 C 12.1875 -3.484375 12.515625 -4.117188 12.515625 -4.890625 C 12.515625 -5.671875 12.164062 -6.253906 11.46875 -6.640625 C 10.769531 -7.023438 9.691406 -7.398438 8.234375 -7.765625 C 6.898438 -8.117188 5.8125 -8.472656 4.96875 -8.828125 C 4.125 -9.191406 3.398438 -9.726562 2.796875 -10.4375 C 2.203125 -11.144531 1.90625 -12.082031 1.90625 -13.25 C 1.90625 -14.164062 2.175781 -15.003906 2.71875 -15.765625 C 3.269531 -16.535156 4.046875 -17.144531 5.046875 -17.59375 C 6.054688 -18.039062 7.203125 -18.265625 8.484375 -18.265625 C 10.472656 -18.265625 12.078125 -17.757812 13.296875 -16.75 C 14.523438 -15.75 15.1875 -14.375 15.28125 -12.625 L 12.296875 -12.625 C 12.222656 -13.5625 11.84375 -14.3125 11.15625 -14.875 C 10.46875 -15.445312 9.546875 -15.734375 8.390625 -15.734375 C 7.316406 -15.734375 6.460938 -15.503906 5.828125 -15.046875 C 5.203125 -14.585938 4.890625 -13.988281 4.890625 -13.25 C 4.890625 -12.65625 5.078125 -12.164062 5.453125 -11.78125 C 5.835938 -11.40625 6.316406 -11.097656 6.890625 -10.859375 C 7.472656 -10.628906 8.28125 -10.375 9.3125 -10.09375 C 10.601562 -9.75 11.648438 -9.40625 12.453125 -9.0625 C 13.265625 -8.726562 13.957031 -8.222656 14.53125 -7.546875 C 15.113281 -6.867188 15.414062 -5.984375 15.4375 -4.890625 C 15.4375 -3.898438 15.160156 -3.007812 14.609375 -2.21875 C 14.066406 -1.4375 13.296875 -0.820312 12.296875 -0.375 C 11.304688 0.0703125 10.171875 0.296875 8.890625 0.296875 Z M 8.890625 0.296875 "/></g></g></g></g><g fill="#d9d9d9" fill-opacity="0.4"><g transform="translate(144.582411, 28.976441)"><g><path d="M 11.4375 -18.296875 C 12.789062 -18.296875 14.015625 -18.003906 15.109375 -17.421875 C 16.203125 -16.835938 17.0625 -15.96875 17.6875 -14.8125 C 18.3125 -13.65625 18.625 -12.25 18.625 -10.59375 L 18.625 0 L 15.671875 0 L 15.671875 -10.15625 C 15.671875 -11.945312 15.222656 -13.316406 14.328125 -14.265625 C 13.429688 -15.222656 12.207031 -15.703125 10.65625 -15.703125 C 9.082031 -15.703125 7.828125 -15.207031 6.890625 -14.21875 C 5.960938 -13.238281 5.5 -11.8125 5.5 -9.9375 L 5.5 0 L 2.53125 0 L 2.53125 -24.265625 L 5.5 -24.265625 L 5.5 -15.40625 C 6.09375 -16.320312 6.90625 -17.03125 7.9375 -17.53125 C 8.976562 -18.039062 10.144531 -18.296875 11.4375 -18.296875 Z M 11.4375 -18.296875 "/></g></g></g><g fill="#d9d9d9" fill-opacity="0.4"><g transform="translate(165.559095, 28.976441)"><g><path d="M 4.0625 -20.875 C 3.5 -20.875 3.019531 -21.070312 2.625 -21.46875 C 2.226562 -21.863281 2.03125 -22.347656 2.03125 -22.921875 C 2.03125 -23.484375 2.226562 -23.960938 2.625 -24.359375 C 3.019531 -24.753906 3.5 -24.953125 4.0625 -24.953125 C 4.613281 -24.953125 5.078125 -24.753906 5.453125 -24.359375 C 5.835938 -23.960938 6.03125 -23.484375 6.03125 -22.921875 C 6.03125 -22.347656 5.835938 -21.863281 5.453125 -21.46875 C 5.078125 -21.070312 4.613281 -20.875 4.0625 -20.875 Z M 5.5 -17.96875 L 5.5 0 L 2.53125 0 L 2.53125 -17.96875 Z M 5.5 -17.96875 "/></g></g></g><g fill="#d9d9d9" fill-opacity="1"><g transform="translate(17.04387, 27.527438)"><g><path d="M 1.40625 -9.046875 C 1.40625 -10.878906 1.773438 -12.488281 2.515625 -13.875 C 3.265625 -15.269531 4.289062 -16.347656 5.59375 -17.109375 C 6.894531 -17.878906 8.34375 -18.265625 9.9375 -18.265625 C 11.507812 -18.265625 12.875 -17.925781 14.03125 -17.25 C 15.1875 -16.570312 16.050781 -15.71875 16.625 -14.6875 L 16.625 -17.96875 L 19.640625 -17.96875 L 19.640625 0 L 16.625 0 L 16.625 -3.34375 C 16.03125 -2.289062 15.148438 -1.421875 13.984375 -0.734375 C 12.816406 -0.046875 11.457031 0.296875 9.90625 0.296875 C 8.300781 0.296875 6.851562 -0.09375 5.5625 -0.875 C 4.28125 -1.664062 3.265625 -2.769531 2.515625 -4.1875 C 1.773438 -5.613281 1.40625 -7.234375 1.40625 -9.046875 Z M 16.625 -9.015625 C 16.625 -10.367188 16.347656 -11.546875 15.796875 -12.546875 C 15.253906 -13.554688 14.515625 -14.328125 13.578125 -14.859375 C 12.648438 -15.398438 11.628906 -15.671875 10.515625 -15.671875 C 9.398438 -15.671875 8.382812 -15.40625 7.46875 -14.875 C 6.550781 -14.351562 5.816406 -13.585938 5.265625 -12.578125 C 4.722656 -11.578125 4.453125 -10.398438 4.453125 -9.046875 C 4.453125 -7.671875 4.722656 -6.472656 5.265625 -5.453125 C 5.816406 -4.441406 6.550781 -3.664062 7.46875 -3.125 C 8.382812 -2.59375 9.398438 -2.328125 10.515625 -2.328125 C 11.628906 -2.328125 12.648438 -2.59375 13.578125 -3.125 C 14.515625 -3.664062 15.253906 -4.441406 15.796875 -5.453125 C 16.347656 -6.472656 16.625 -7.660156 16.625 -9.015625 Z M 16.625 -9.015625 "/></g></g></g><g fill="#d9d9d9" fill-opacity="1"><g transform="translate(39.200491, 27.527438)"><g><path d="M 1.40625 -9.046875 C 1.40625 -10.878906 1.773438 -12.488281 2.515625 -13.875 C 3.265625 -15.269531 4.289062 -16.347656 5.59375 -17.109375 C 6.894531 -17.878906 8.351562 -18.265625 9.96875 -18.265625 C 11.363281 -18.265625 12.660156 -17.941406 13.859375 -17.296875 C 15.066406 -16.648438 15.988281 -15.800781 16.625 -14.75 L 16.625 -24.265625 L 19.640625 -24.265625 L 19.640625 0 L 16.625 0 L 16.625 -3.375 C 16.03125 -2.300781 15.15625 -1.421875 14 -0.734375 C 12.84375 -0.046875 11.488281 0.296875 9.9375 0.296875 C 8.34375 0.296875 6.894531 -0.09375 5.59375 -0.875 C 4.289062 -1.664062 3.265625 -2.769531 2.515625 -4.1875 C 1.773438 -5.613281 1.40625 -7.234375 1.40625 -9.046875 Z M 16.625 -9.015625 C 16.625 -10.367188 16.347656 -11.546875 15.796875 -12.546875 C 15.253906 -13.554688 14.515625 -14.328125 13.578125 -14.859375 C 12.648438 -15.398438 11.628906 -15.671875 10.515625 -15.671875 C 9.398438 -15.671875 8.382812 -15.40625 7.46875 -14.875 C 6.550781 -14.351562 5.816406 -13.585938 5.265625 -12.578125 C 4.722656 -11.578125 4.453125 -10.398438 4.453125 -9.046875 C 4.453125 -7.671875 4.722656 -6.472656 5.265625 -5.453125 C 5.816406 -4.441406 6.550781 -3.664062 7.46875 -3.125 C 8.382812 -2.59375 9.398438 -2.328125 10.515625 -2.328125 C 11.628906 -2.328125 12.648438 -2.59375 13.578125 -3.125 C 14.515625 -3.664062 15.253906 -4.441406 15.796875 -5.453125 C 16.347656 -6.472656 16.625 -7.660156 16.625 -9.015625 Z M 16.625 -9.015625 "/></g></g></g><g fill="#d9d9d9" fill-opacity="1"><g transform="translate(61.357113, 27.527438)"><g><path d="M 1.40625 -9.046875 C 1.40625 -10.878906 1.773438 -12.488281 2.515625 -13.875 C 3.265625 -15.269531 4.289062 -16.347656 5.59375 -17.109375 C 6.894531 -17.878906 8.34375 -18.265625 9.9375 -18.265625 C 11.507812 -18.265625 12.875 -17.925781 14.03125 -17.25 C 15.1875 -16.570312 16.050781 -15.71875 16.625 -14.6875 L 16.625 -17.96875 L 19.640625 -17.96875 L 19.640625 0 L 16.625 0 L 16.625 -3.34375 C 16.03125 -2.289062 15.148438 -1.421875 13.984375 -0.734375 C 12.816406 -0.046875 11.457031 0.296875 9.90625 0.296875 C 8.300781 0.296875 6.851562 -0.09375 5.5625 -0.875 C 4.28125 -1.664062 3.265625 -2.769531 2.515625 -4.1875 C 1.773438 -5.613281 1.40625 -7.234375 1.40625 -9.046875 Z M 16.625 -9.015625 C 16.625 -10.367188 16.347656 -11.546875 15.796875 -12.546875 C 15.253906 -13.554688 14.515625 -14.328125 13.578125 -14.859375 C 12.648438 -15.398438 11.628906 -15.671875 10.515625 -15.671875 C 9.398438 -15.671875 8.382812 -15.40625 7.46875 -14.875 C 6.550781 -14.351562 5.816406 -13.585938 5.265625 -12.578125 C 4.722656 -11.578125 4.453125 -10.398438 4.453125 -9.046875 C 4.453125 -7.671875 4.722656 -6.472656 5.265625 -5.453125 C 5.816406 -4.441406 6.550781 -3.664062 7.46875 -3.125 C 8.382812 -2.59375 9.398438 -2.328125 10.515625 -2.328125 C 11.628906 -2.328125 12.648438 -2.59375 13.578125 -3.125 C 14.515625 -3.664062 15.253906 -4.441406 15.796875 -5.453125 C 16.347656 -6.472656 16.625 -7.660156 16.625 -9.015625 Z M 16.625 -9.015625 "/></g></g></g><g fill="#d9d9d9" fill-opacity="1"><g transform="translate(83.513734, 27.527438)"><g><path d="M 24.125 -18.296875 C 25.519531 -18.296875 26.765625 -18.003906 27.859375 -17.421875 C 28.953125 -16.835938 29.816406 -15.96875 30.453125 -14.8125 C 31.085938 -13.65625 31.40625 -12.25 31.40625 -10.59375 L 31.40625 0 L 28.453125 0 L 28.453125 -10.15625 C 28.453125 -11.945312 28.007812 -13.316406 27.125 -14.265625 C 26.238281 -15.222656 25.039062 -15.703125 23.53125 -15.703125 C 21.976562 -15.703125 20.742188 -15.203125 19.828125 -14.203125 C 18.910156 -13.210938 18.453125 -11.78125 18.453125 -9.90625 L 18.453125 0 L 15.5 0 L 15.5 -10.15625 C 15.5 -11.945312 15.054688 -13.316406 14.171875 -14.265625 C 13.285156 -15.222656 12.09375 -15.703125 10.59375 -15.703125 C 9.039062 -15.703125 7.800781 -15.203125 6.875 -14.203125 C 5.957031 -13.210938 5.5 -11.78125 5.5 -9.90625 L 5.5 0 L 2.53125 0 L 2.53125 -17.96875 L 5.5 -17.96875 L 5.5 -15.375 C 6.09375 -16.3125 6.882812 -17.03125 7.875 -17.53125 C 8.875 -18.039062 9.972656 -18.296875 11.171875 -18.296875 C 12.679688 -18.296875 14.015625 -17.957031 15.171875 -17.28125 C 16.335938 -16.601562 17.203125 -15.609375 17.765625 -14.296875 C 18.265625 -15.554688 19.09375 -16.535156 20.25 -17.234375 C 21.414062 -17.941406 22.707031 -18.296875 24.125 -18.296875 Z M 24.125 -18.296875 "/></g></g></g><g fill="#d9d9d9" fill-opacity="1"><g transform="translate(117.273089, 27.527438)"><g/></g></g><g fill="#d9d9d9" fill-opacity="1"><g transform="translate(126.024298, 27.527438)"><g><path d="M 8.890625 0.296875 C 7.503906 0.296875 6.265625 0.0625 5.171875 -0.40625 C 4.085938 -0.875 3.226562 -1.53125 2.59375 -2.375 C 1.957031 -3.21875 1.609375 -4.1875 1.546875 -5.28125 L 4.625 -5.28125 C 4.707031 -4.382812 5.125 -3.648438 5.875 -3.078125 C 6.632812 -2.515625 7.625 -2.234375 8.84375 -2.234375 C 9.988281 -2.234375 10.882812 -2.484375 11.53125 -2.984375 C 12.1875 -3.484375 12.515625 -4.117188 12.515625 -4.890625 C 12.515625 -5.671875 12.164062 -6.253906 11.46875 -6.640625 C 10.769531 -7.023438 9.691406 -7.398438 8.234375 -7.765625 C 6.898438 -8.117188 5.8125 -8.472656 4.96875 -8.828125 C 4.125 -9.191406 3.398438 -9.726562 2.796875 -10.4375 C 2.203125 -11.144531 1.90625 -12.082031 1.90625 -13.25 C 1.90625 -14.164062 2.175781 -15.003906 2.71875 -15.765625 C 3.269531 -16.535156 4.046875 -17.144531 5.046875 -17.59375 C 6.054688 -18.039062 7.203125 -18.265625 8.484375 -18.265625 C 10.472656 -18.265625 12.078125 -17.757812 13.296875 -16.75 C 14.523438 -15.75 15.1875 -14.375 15.28125 -12.625 L 12.296875 -12.625 C 12.222656 -13.5625 11.84375 -14.3125 11.15625 -14.875 C 10.46875 -15.445312 9.546875 -15.734375 8.390625 -15.734375 C 7.316406 -15.734375 6.460938 -15.503906 5.828125 -15.046875 C 5.203125 -14.585938 4.890625 -13.988281 4.890625 -13.25 C 4.890625 -12.65625 5.078125 -12.164062 5.453125 -11.78125 C 5.835938 -11.40625 6.316406 -11.097656 6.890625 -10.859375 C 7.472656 -10.628906 8.28125 -10.375 9.3125 -10.09375 C 10.601562 -9.75 11.648438 -9.40625 12.453125 -9.0625 C 13.265625 -8.726562 13.957031 -8.222656 14.53125 -7.546875 C 15.113281 -6.867188 15.414062 -5.984375 15.4375 -4.890625 C 15.4375 -3.898438 15.160156 -3.007812 14.609375 -2.21875 C 14.066406 -1.4375 13.296875 -0.820312 12.296875 -0.375 C 11.304688 0.0703125 10.171875 0.296875 8.890625 0.296875 Z M 8.890625 0.296875 "/></g></g></g><g fill="#d9d9d9" fill-opacity="1"><g transform="translate(143.133408, 27.527438)"><g><path d="M 11.4375 -18.296875 C 12.789062 -18.296875 14.015625 -18.003906 15.109375 -17.421875 C 16.203125 -16.835938 17.0625 -15.96875 17.6875 -14.8125 C 18.3125 -13.65625 18.625 -12.25 18.625 -10.59375 L 18.625 0 L 15.671875 0 L 15.671875 -10.15625 C 15.671875 -11.945312 15.222656 -13.316406 14.328125 -14.265625 C 13.429688 -15.222656 12.207031 -15.703125 10.65625 -15.703125 C 9.082031 -15.703125 7.828125 -15.207031 6.890625 -14.21875 C 5.960938 -13.238281 5.5 -11.8125 5.5 -9.9375 L 5.5 0 L 2.53125 0 L 2.53125 -24.265625 L 5.5 -24.265625 L 5.5 -15.40625 C 6.09375 -16.320312 6.90625 -17.03125 7.9375 -17.53125 C 8.976562 -18.039062 10.144531 -18.296875 11.4375 -18.296875 Z M 11.4375 -18.296875 "/></g></g></g><g fill="#d9d9d9" fill-opacity="1"><g transform="translate(164.110093, 27.527438)"><g><path d="M 4.0625 -20.875 C 3.5 -20.875 3.019531 -21.070312 2.625 -21.46875 C 2.226562 -21.863281 2.03125 -22.347656 2.03125 -22.921875 C 2.03125 -23.484375 2.226562 -23.960938 2.625 -24.359375 C 3.019531 -24.753906 3.5 -24.953125 4.0625 -24.953125 C 4.613281 -24.953125 5.078125 -24.753906 5.453125 -24.359375 C 5.835938 -23.960938 6.03125 -23.484375 6.03125 -22.921875 C 6.03125 -22.347656 5.835938 -21.863281 5.453125 -21.46875 C 5.078125 -21.070312 4.613281 -20.875 4.0625 -20.875 Z M 5.5 -17.96875 L 5.5 0 L 2.53125 0 L 2.53125 -17.96875 Z M 5.5 -17.96875 "/></g></g></g><g clip-path="url(#id5)"><g fill="#d9d9d9" fill-opacity="0.4"><g transform="translate(191.385034, 29.093998)"><g><path d="M 5.53125 -20.5 L 5.53125 -12.828125 L 13.890625 -12.828125 L 13.890625 -10.359375 L 5.53125 -10.359375 L 5.53125 -2.46875 L 14.875 -2.46875 L 14.875 0 L 2.53125 0 L 2.53125 -22.96875 L 14.875 -22.96875 L 14.875 -20.5 Z M 5.53125 -20.5 "/></g></g></g></g><g clip-path="url(#id6)"><g fill="#d9d9d9" fill-opacity="0.4"><g transform="translate(208.260207, 29.093998)"><g><path d="M 5.53125 -2.4375 L 13.5625 -2.4375 L 13.5625 0 L 2.53125 0 L 2.53125 -22.9375 L 5.53125 -22.9375 Z M 5.53125 -2.4375 "/></g></g></g></g><g clip-path="url(#id7)"><g fill="#d9d9d9" fill-opacity="0.4"><g transform="translate(222.470888, 29.093998)"><g><path d="M 18.59375 -22.9375 L 11.125 -8.65625 L 11.125 0 L 8.125 0 L 8.125 -8.65625 L 0.625 -22.9375 L 3.953125 -22.9375 L 9.609375 -11.3125 L 15.265625 -22.9375 Z M 18.59375 -22.9375 "/></g></g></g></g><g fill="#d9d9d9" fill-opacity="1"><g transform="translate(189.930771, 27.639734)"><g><path d="M 5.53125 -20.5 L 5.53125 -12.828125 L 13.890625 -12.828125 L 13.890625 -10.359375 L 5.53125 -10.359375 L 5.53125 -2.46875 L 14.875 -2.46875 L 14.875 0 L 2.53125 0 L 2.53125 -22.96875 L 14.875 -22.96875 L 14.875 -20.5 Z M 5.53125 -20.5 "/></g></g></g><g fill="#d9d9d9" fill-opacity="1"><g transform="translate(206.805944, 27.639734)"><g><path d="M 5.53125 -2.4375 L 13.5625 -2.4375 L 13.5625 0 L 2.53125 0 L 2.53125 -22.9375 L 5.53125 -22.9375 Z M 5.53125 -2.4375 "/></g></g></g><g clip-path="url(#id8)"><g fill="#d9d9d9" fill-opacity="1"><g transform="translate(221.016625, 27.639734)"><g><path d="M 18.59375 -22.9375 L 11.125 -8.65625 L 11.125 0 L 8.125 0 L 8.125 -8.65625 L 0.625 -22.9375 L 3.953125 -22.9375 L 9.609375 -11.3125 L 15.265625 -22.9375 Z M 18.59375 -22.9375 "/></g></g></g></g><g clip-path="url(#id9)"><path fill="#218a39" d="M 3.867188 17.34375 C 3.867188 16.992188 4.003906 16.640625 4.277344 16.375 L 12.84375 7.933594 C 13.386719 7.398438 14.273438 7.398438 14.816406 7.933594 C 15.359375 8.472656 15.359375 9.34375 14.816406 9.878906 L 7.238281 17.34375 L 14.816406 24.808594 C 15.359375 25.347656 15.359375 26.214844 14.816406 26.753906 C 14.269531 27.289062 13.386719 27.289062 12.84375 26.753906 L 4.277344 18.316406 C 4.003906 18.046875 3.867188 17.695312 3.867188 17.34375 Z M 3.867188 17.34375 " fill-opacity="1" fill-rule="nonzero"/></g><g clip-path="url(#id10)"><path fill="#218a39" d="M 187.328125 17.34375 C 187.328125 16.992188 187.191406 16.640625 186.917969 16.375 L 178.351562 7.933594 C 177.808594 7.398438 176.925781 7.398438 176.378906 7.933594 C 175.835938 8.472656 175.835938 9.34375 176.378906 9.878906 L 183.957031 17.34375 L 176.378906 24.808594 C 175.835938 25.347656 175.835938 26.214844 176.378906 26.753906 C 176.925781 27.289062 177.808594 27.289062 178.351562 26.753906 L 186.917969 18.316406 C 187.191406 18.046875 187.328125 17.695312 187.328125 17.34375 Z M 187.328125 17.34375 " fill-opacity="1" fill-rule="nonzero"/></g></svg>