<svg xmlns="http://www.w3.org/2000/svg" xmlns:xlink="http://www.w3.org/1999/xlink" width="150" zoomAndPan="magnify" viewBox="0 0 112.5 44.999999" height="60" preserveAspectRatio="xMidYMid meet" version="1.0"><defs><g/><clipPath id="id1"><path d="M 0.941406 3.199219 L 23 3.199219 L 23 42.199219 L 0.941406 42.199219 Z M 0.941406 3.199219 " clip-rule="nonzero"/></clipPath><clipPath id="id2"><path d="M 89.167969 3.199219 L 111.433594 3.199219 L 111.433594 42.199219 L 89.167969 42.199219 Z M 89.167969 3.199219 " clip-rule="nonzero"/></clipPath></defs><g clip-path="url(#id1)"><path fill="#7ed957" d="M 0.941406 22.691406 C 0.941406 21.992188 1.207031 21.292969 1.734375 20.761719 L 18.308594 3.988281 C 19.367188 2.917969 21.078125 2.917969 22.128906 3.988281 C 23.183594 5.054688 23.183594 6.785156 22.128906 7.851562 L 7.460938 22.691406 L 22.128906 37.535156 C 23.183594 38.601562 23.183594 40.332031 22.128906 41.398438 C 21.074219 42.464844 19.363281 42.464844 18.308594 41.398438 L 1.734375 24.625 C 1.207031 24.09375 0.941406 23.390625 0.941406 22.691406 Z M 0.941406 22.691406 " fill-opacity="1" fill-rule="nonzero"/></g><g fill="#7ed957" fill-opacity="1"><g transform="translate(24.622493, 41.511462)"><g><path d="M 0.875 -0.359375 C 0.875 -0.660156 0.957031 -0.984375 1.125 -1.328125 L 19.046875 -38.125 C 19.453125 -38.976562 20.164062 -39.40625 21.1875 -39.40625 C 21.9375 -39.40625 22.625 -39.148438 23.25 -38.640625 C 23.882812 -38.128906 24.203125 -37.484375 24.203125 -36.703125 C 24.203125 -36.328125 24.128906 -36.003906 23.984375 -35.734375 L 6.03125 1.078125 C 5.613281 1.921875 4.84375 2.34375 3.71875 2.34375 C 2.90625 2.34375 2.226562 2.0625 1.6875 1.5 C 1.144531 0.9375 0.875 0.316406 0.875 -0.359375 Z M 0.875 -0.359375 "/></g></g></g><g clip-path="url(#id2)"><path fill="#7ed957" d="M 111.550781 22.691406 C 111.550781 21.992188 111.289062 21.292969 110.761719 20.761719 L 94.183594 3.988281 C 93.128906 2.917969 91.417969 2.917969 90.363281 3.988281 C 89.3125 5.054688 89.3125 6.785156 90.363281 7.851562 L 105.035156 22.691406 L 90.367188 37.535156 C 89.3125 38.601562 89.3125 40.332031 90.367188 41.398438 C 91.421875 42.464844 93.132812 42.464844 94.183594 41.398438 L 110.761719 24.625 C 111.289062 24.09375 111.550781 23.390625 111.550781 22.691406 Z M 111.550781 22.691406 " fill-opacity="1" fill-rule="nonzero"/></g><g fill="#d9d9d9" fill-opacity="0.4"><g transform="translate(46.197594, 37.377328)"><g><path d="M 1.546875 -9.9375 C 1.546875 -11.957031 1.953125 -13.726562 2.765625 -15.25 C 3.585938 -16.78125 4.710938 -17.960938 6.140625 -18.796875 C 7.566406 -19.640625 9.15625 -20.0625 10.90625 -20.0625 C 12.632812 -20.0625 14.132812 -19.6875 15.40625 -18.9375 C 16.6875 -18.195312 17.640625 -17.265625 18.265625 -16.140625 L 18.265625 -19.734375 L 21.578125 -19.734375 L 21.578125 0 L 18.265625 0 L 18.265625 -3.671875 C 17.609375 -2.515625 16.640625 -1.554688 15.359375 -0.796875 C 14.078125 -0.046875 12.582031 0.328125 10.875 0.328125 C 9.125 0.328125 7.539062 -0.101562 6.125 -0.96875 C 4.707031 -1.832031 3.585938 -3.046875 2.765625 -4.609375 C 1.953125 -6.171875 1.546875 -7.945312 1.546875 -9.9375 Z M 18.265625 -9.90625 C 18.265625 -11.394531 17.960938 -12.691406 17.359375 -13.796875 C 16.753906 -14.898438 15.941406 -15.742188 14.921875 -16.328125 C 13.898438 -16.921875 12.78125 -17.21875 11.5625 -17.21875 C 10.332031 -17.21875 9.210938 -16.925781 8.203125 -16.34375 C 7.203125 -15.769531 6.398438 -14.929688 5.796875 -13.828125 C 5.191406 -12.722656 4.890625 -11.425781 4.890625 -9.9375 C 4.890625 -8.425781 5.191406 -7.113281 5.796875 -6 C 6.398438 -4.882812 7.203125 -4.03125 8.203125 -3.4375 C 9.210938 -2.851562 10.332031 -2.5625 11.5625 -2.5625 C 12.78125 -2.5625 13.898438 -2.851562 14.921875 -3.4375 C 15.941406 -4.03125 16.753906 -4.882812 17.359375 -6 C 17.960938 -7.113281 18.265625 -8.414062 18.265625 -9.90625 Z M 18.265625 -9.90625 "/></g></g></g><g fill="#d9d9d9" fill-opacity="0.4"><g transform="translate(70.541499, 37.377328)"><g><path d="M 10.734375 0.25 C 9.078125 0.25 7.59375 -0.0390625 6.28125 -0.625 C 4.976562 -1.21875 3.953125 -2.035156 3.203125 -3.078125 C 2.460938 -4.117188 2.078125 -5.328125 2.046875 -6.703125 L 5.546875 -6.703125 C 5.660156 -5.523438 6.144531 -4.53125 7 -3.71875 C 7.851562 -2.914062 9.097656 -2.515625 10.734375 -2.515625 C 12.296875 -2.515625 13.523438 -2.90625 14.421875 -3.6875 C 15.328125 -4.46875 15.78125 -5.472656 15.78125 -6.703125 C 15.78125 -7.660156 15.515625 -8.4375 14.984375 -9.03125 C 14.453125 -9.632812 13.789062 -10.09375 13 -10.40625 C 12.207031 -10.71875 11.140625 -11.054688 9.796875 -11.421875 C 8.140625 -11.847656 6.8125 -12.273438 5.8125 -12.703125 C 4.820312 -13.140625 3.972656 -13.820312 3.265625 -14.75 C 2.554688 -15.675781 2.203125 -16.914062 2.203125 -18.46875 C 2.203125 -19.84375 2.546875 -21.054688 3.234375 -22.109375 C 3.929688 -23.171875 4.910156 -23.988281 6.171875 -24.5625 C 7.429688 -25.132812 8.878906 -25.421875 10.515625 -25.421875 C 12.867188 -25.421875 14.796875 -24.832031 16.296875 -23.65625 C 17.796875 -22.476562 18.644531 -20.921875 18.84375 -18.984375 L 15.234375 -18.984375 C 15.109375 -19.941406 14.601562 -20.785156 13.71875 -21.515625 C 12.832031 -22.253906 11.65625 -22.625 10.1875 -22.625 C 8.820312 -22.625 7.707031 -22.269531 6.84375 -21.5625 C 5.976562 -20.851562 5.546875 -19.859375 5.546875 -18.578125 C 5.546875 -17.671875 5.800781 -16.925781 6.3125 -16.34375 C 6.832031 -15.769531 7.46875 -15.332031 8.21875 -15.03125 C 8.976562 -14.738281 10.046875 -14.398438 11.421875 -14.015625 C 13.078125 -13.554688 14.40625 -13.101562 15.40625 -12.65625 C 16.414062 -12.21875 17.28125 -11.535156 18 -10.609375 C 18.726562 -9.679688 19.09375 -8.425781 19.09375 -6.84375 C 19.09375 -5.613281 18.765625 -4.457031 18.109375 -3.375 C 17.460938 -2.300781 16.503906 -1.425781 15.234375 -0.75 C 13.960938 -0.0820312 12.460938 0.25 10.734375 0.25 Z M 10.734375 0.25 "/></g></g></g><g fill="#d9d9d9" fill-opacity="1"><g transform="translate(44.605354, 35.785088)"><g><path d="M 1.546875 -9.9375 C 1.546875 -11.957031 1.953125 -13.726562 2.765625 -15.25 C 3.585938 -16.78125 4.710938 -17.960938 6.140625 -18.796875 C 7.566406 -19.640625 9.15625 -20.0625 10.90625 -20.0625 C 12.632812 -20.0625 14.132812 -19.6875 15.40625 -18.9375 C 16.6875 -18.195312 17.640625 -17.265625 18.265625 -16.140625 L 18.265625 -19.734375 L 21.578125 -19.734375 L 21.578125 0 L 18.265625 0 L 18.265625 -3.671875 C 17.609375 -2.515625 16.640625 -1.554688 15.359375 -0.796875 C 14.078125 -0.046875 12.582031 0.328125 10.875 0.328125 C 9.125 0.328125 7.539062 -0.101562 6.125 -0.96875 C 4.707031 -1.832031 3.585938 -3.046875 2.765625 -4.609375 C 1.953125 -6.171875 1.546875 -7.945312 1.546875 -9.9375 Z M 18.265625 -9.90625 C 18.265625 -11.394531 17.960938 -12.691406 17.359375 -13.796875 C 16.753906 -14.898438 15.941406 -15.742188 14.921875 -16.328125 C 13.898438 -16.921875 12.78125 -17.21875 11.5625 -17.21875 C 10.332031 -17.21875 9.210938 -16.925781 8.203125 -16.34375 C 7.203125 -15.769531 6.398438 -14.929688 5.796875 -13.828125 C 5.191406 -12.722656 4.890625 -11.425781 4.890625 -9.9375 C 4.890625 -8.425781 5.191406 -7.113281 5.796875 -6 C 6.398438 -4.882812 7.203125 -4.03125 8.203125 -3.4375 C 9.210938 -2.851562 10.332031 -2.5625 11.5625 -2.5625 C 12.78125 -2.5625 13.898438 -2.851562 14.921875 -3.4375 C 15.941406 -4.03125 16.753906 -4.882812 17.359375 -6 C 17.960938 -7.113281 18.265625 -8.414062 18.265625 -9.90625 Z M 18.265625 -9.90625 "/></g></g></g><g fill="#d9d9d9" fill-opacity="1"><g transform="translate(68.949259, 35.785088)"><g><path d="M 10.734375 0.25 C 9.078125 0.25 7.59375 -0.0390625 6.28125 -0.625 C 4.976562 -1.21875 3.953125 -2.035156 3.203125 -3.078125 C 2.460938 -4.117188 2.078125 -5.328125 2.046875 -6.703125 L 5.546875 -6.703125 C 5.660156 -5.523438 6.144531 -4.53125 7 -3.71875 C 7.851562 -2.914062 9.097656 -2.515625 10.734375 -2.515625 C 12.296875 -2.515625 13.523438 -2.90625 14.421875 -3.6875 C 15.328125 -4.46875 15.78125 -5.472656 15.78125 -6.703125 C 15.78125 -7.660156 15.515625 -8.4375 14.984375 -9.03125 C 14.453125 -9.632812 13.789062 -10.09375 13 -10.40625 C 12.207031 -10.71875 11.140625 -11.054688 9.796875 -11.421875 C 8.140625 -11.847656 6.8125 -12.273438 5.8125 -12.703125 C 4.820312 -13.140625 3.972656 -13.820312 3.265625 -14.75 C 2.554688 -15.675781 2.203125 -16.914062 2.203125 -18.46875 C 2.203125 -19.84375 2.546875 -21.054688 3.234375 -22.109375 C 3.929688 -23.171875 4.910156 -23.988281 6.171875 -24.5625 C 7.429688 -25.132812 8.878906 -25.421875 10.515625 -25.421875 C 12.867188 -25.421875 14.796875 -24.832031 16.296875 -23.65625 C 17.796875 -22.476562 18.644531 -20.921875 18.84375 -18.984375 L 15.234375 -18.984375 C 15.109375 -19.941406 14.601562 -20.785156 13.71875 -21.515625 C 12.832031 -22.253906 11.65625 -22.625 10.1875 -22.625 C 8.820312 -22.625 7.707031 -22.269531 6.84375 -21.5625 C 5.976562 -20.851562 5.546875 -19.859375 5.546875 -18.578125 C 5.546875 -17.671875 5.800781 -16.925781 6.3125 -16.34375 C 6.832031 -15.769531 7.46875 -15.332031 8.21875 -15.03125 C 8.976562 -14.738281 10.046875 -14.398438 11.421875 -14.015625 C 13.078125 -13.554688 14.40625 -13.101562 15.40625 -12.65625 C 16.414062 -12.21875 17.28125 -11.535156 18 -10.609375 C 18.726562 -9.679688 19.09375 -8.425781 19.09375 -6.84375 C 19.09375 -5.613281 18.765625 -4.457031 18.109375 -3.375 C 17.460938 -2.300781 16.503906 -1.425781 15.234375 -0.75 C 13.960938 -0.0820312 12.460938 0.25 10.734375 0.25 Z M 10.734375 0.25 "/></g></g></g></svg>